#!OML:ASF E:\motion texture\Top Level 1\Subject 1\Session 1\male.ASF
:FULLY-SPECIFIED
:DEGREES
388
root -26.2086 17.7155 3.26787 495.2 -77.4929 -487.722
lowerback -3.3819 -1.9676 7.50514
upperback -5.03949 -2.855 3.5747
thorax -3.51361 -1.719 -0.483701
lowerneck -8.19994 -10.9594 -13.6618
upperneck 14.7668 -14.2871 6.63557
head 7.34186 -7.20515 2.89929
rclavicle 4.28443e-014 -2.26118e-014
rhumerus -10.6574 -10.883 -56.8051
rradius 67.6731
rwrist -4.6241
rhand -25.2275 -34.5168
rfingers 7.12502
rthumb 1.29188 295.507
lclavicle 4.28443e-014 -2.26118e-014
lhumerus -2.03441 -19.4631 92.1601
lradius 72.4037
lwrist 5.09389
lhand -8.96837 30.5669
lfingers 7.12502
lthumb 16.9769 59.8449
rfemur 2.76085 3.62661 32.5699
rtibia 25.7203
rfoot -14.4385 -6.70262
rtoes -11.9443
lfemur -29.5514 2.00578 -6.32926
ltibia 20.1001
lfoot -1.6741 9.9375
ltoes -6.72651
389
root -26.3874 17.7141 3.27397 496.375 -77.7961 -489.077
lowerback -3.36329 -1.91124 7.12151
upperback -4.94054 -2.76953 3.36683
thorax -3.40293 -1.65608 -0.492256
lowerneck -8.43289 -10.8331 -13.4771
upperneck 14.7907 -14.0854 6.54186
head 7.34775 -7.09896 2.8568
rclavicle 4.6702e-014 -1.69464e-014
rhumerus -12.1189 -10.3039 -56.7883
rradius 67.5931
rwrist -3.41798
rhand -25.3211 -33.5571
rfingers 7.12502
rthumb 1.20141 296.467
lclavicle 4.6702e-014 -1.69464e-014
lhumerus -3.15608 -19.1193 92.6006
lradius 71.8039
lwrist 4.4246
lhand -8.80375 29.7914
lfingers 7.12502
lthumb 17.1353 59.0558
rfemur 2.51913 3.49581 31.8883
rtibia 27.4394
rfoot -13.9071 -6.39188
rtoes -13.2399
lfemur -29.4401 1.27617 -6.86431
ltibia 21.0432
lfoot -1.27512 9.10348
ltoes -4.75708
390
root -26.5684 17.7151 3.281 497.481 -78.1326 -490.399
lowerback -3.3376 -1.87522 6.73523
upperback -4.81709 -2.71087 3.1565
thorax -3.27309 -1.60571 -0.501449
lowerneck -8.66066 -10.6983 -13.2852
upperneck 14.7656 -13.8743 6.46957
head 7.33736 -6.98576 2.82252
rclavicle -4.26141e-014 3.28554e-014
rhumerus -13.5681 -9.76289 -56.87
rradius 67.4061
rwrist -2.29711
rhand -25.3542 -32.5525
rfingers 7.12502
rthumb 1.16943 297.471
lclavicle -4.26141e-014 3.28554e-014
lhumerus -4.31513 -18.7229 93.0554
lradius 71.0915
lwrist 3.77097
lhand -8.6917 29.1325
lfingers 7.12502
lthumb 17.2432 58.3875
rfemur 2.20768 3.23949 31.1455
rtibia 29.2906
rfoot -13.1684 -6.01868
rtoes -14.2367
lfemur -29.2494 0.598909 -7.46481
ltibia 21.9652
lfoot -1.02465 8.46505
ltoes -2.70926
391
root -26.75 17.7177 3.28852 498.35 -78.4476 -491.512
lowerback -3.27829 -1.85157 6.40657
upperback -4.6806 -2.66696 2.96229
thorax -3.15257 -1.56504 -0.5238
lowerneck -8.8768 -10.552 -13.0763
upperneck 14.7016 -13.6505 6.40261
head 7.3107 -6.86511 2.79042
rclavicle 3.50591e-014 -1.42752e-014
rhumerus -15.0174 -9.25764 -57.0399
rradius 67.1172
rwrist -1.29332
rhand -25.2728 -31.5006
rfingers 7.12502
rthumb 1.24813 298.523
lclavicle 3.50591e-014 -1.42752e-014
lhumerus -5.52973 -18.2729 93.5248
lradius 70.2762
lwrist 3.13077
lhand -8.663 28.6068
lfingers 7.12502
lthumb 17.2708 57.8594
rfemur 1.80331 2.89178 30.4276
rtibia 31.2861
rfoot -12.1807 -5.62146
rtoes -14.7977
lfemur -28.9693 0.0333265 -8.0508
ltibia 22.8573
lfoot -0.893024 8.03048
ltoes -0.63829
392
root -26.9316 17.7209 3.29643 498.932 -78.7138 -492.36
lowerback -3.18381 -1.83239 6.16103
upperback -4.5358 -2.62794 2.79192
thorax -3.04735 -1.53012 -0.565536
lowerneck -9.05795 -10.395 -12.8647
upperneck 14.5877 -13.4178 6.35304
head 7.26254 -6.73931 2.76715
rclavicle -3.40698e-014 2.83268e-014
rhumerus -16.4679 -8.77816 -57.2844
rradius 66.727
rwrist -0.443626
rhand -25.1494 -30.4636
rfingers 7.12502
rthumb 1.36723 299.561
lclavicle -3.40698e-014 2.83268e-014
lhumerus -6.7973 -17.765 94.0011
lradius 69.3598
lwrist 2.518
lhand -8.71272 28.2224
lfingers 7.12502
lthumb 17.223 57.4791
rfemur 1.30006 2.48494 29.7738
rtibia 33.4169
rfoot -10.9027 -5.24005
rtoes -14.857
lfemur -28.5841 -0.394038 -8.58668
ltibia 23.6863
lfoot -0.900789 7.7765
ltoes 1.09205
393
root -27.1122 17.7238 3.30454 499.302 -78.9313 -493.004
lowerback -3.05942 -1.81284 5.98336
upperback -4.39627 -2.58757 2.64511
thorax -2.96718 -1.49775 -0.618614
lowerneck -9.19938 -10.2175 -12.6617
upperneck 14.4392 -13.1654 6.3338
head 7.19773 -6.60317 2.75968
rclavicle -4.75841e-015 -1.51076e-014
rhumerus -17.9237 -8.30072 -57.5919
rradius 66.2386
rwrist 0.21664
rhand -24.9244 -29.4455
rfingers 7.12502
rthumb 1.58458 300.581
lclavicle -4.75841e-015 -1.51076e-014
lhumerus -8.12789 -17.1996 94.4804
lradius 68.3539
lwrist 1.9501
lhand -8.84863 27.9881
lfingers 7.12502
lthumb 17.0921 57.2562
rfemur 0.681047 2.05764 29.1839
rtibia 35.6628
rfoot -9.28023 -4.94703
rtoes -14.3112
lfemur -28.1034 -0.683835 -9.07565
ltibia 24.4335
lfoot -1.07255 7.62568
ltoes 2.36633
394
root -27.2916 17.726 3.31304 499.694 -79.0993 -493.667
lowerback -2.92043 -1.78453 5.84451
upperback -4.25982 -2.53557 2.51207
thorax -2.89939 -1.46145 -0.678067
lowerneck -9.32569 -10.0278 -12.4489
upperneck 14.2803 -12.9002 6.31294
head 7.12557 -6.46101 2.75237
rclavicle -3.68746e-014 8.29926e-015
rhumerus -19.3492 -7.82727 -57.9705
rradius 65.6383
rwrist 0.68164
rhand -24.5467 -28.4694
rfingers 7.12502
rthumb 1.94934 301.56
lclavicle -3.68746e-014 8.29926e-015
lhumerus -9.48985 -16.5862 94.9384
lradius 67.2542
lwrist 1.44453
lhand -9.07602 27.8606
lfingers 7.12502
lthumb 16.8733 57.1476
rfemur -0.0629324 1.65183 28.6294
rtibia 37.9993
rfoot -7.27131 -4.77606
rtoes -13.2859
lfemur -27.5244 -0.850212 -9.54173
ltibia 25.0534
lfoot -1.40243 7.50116
ltoes 3.15436
395
root -27.469 17.7275 3.32171 500.346 -79.2494 -494.578
lowerback -2.77539 -1.74812 5.68076
upperback -4.13419 -2.47246 2.38406
thorax -2.84433 -1.41969 -0.717928
lowerneck -9.43195 -9.82407 -12.2291
upperneck 14.1177 -12.6188 6.28144
head 7.04681 -6.31222 2.74316
rclavicle 1.18712e-014 1.83876e-014
rhumerus -20.734 -7.3411 -58.4135
rradius 64.9255
rwrist 0.960751
rhand -23.982 -27.5436
rfingers 7.12502
rthumb 2.4947 302.491
lclavicle 1.18712e-014 1.83876e-014
lhumerus -10.8759 -15.9201 95.3736
lradius 66.0563
lwrist 0.96258
lhand -9.38193 27.793
lfingers 7.12502
lthumb 16.5788 57.1048
rfemur -0.933336 1.29237 28.0615
rtibia 40.3994
rfoot -4.8641 -4.7501
rtoes -11.8924
lfemur -26.8622 -0.928886 -10.0389
ltibia 25.5243
lfoot -1.86902 7.3787
ltoes 3.50155
396
root -27.6444 17.7283 3.33051 501.474 -79.4116 -495.951
lowerback -2.63158 -1.70362 5.443
upperback -4.02161 -2.3982 2.24688
thorax -2.79863 -1.37108 -0.725915
lowerneck -9.53091 -9.60765 -11.9947
upperneck 13.9671 -12.3214 6.22571
head 6.96753 -6.1573 2.72556
rclavicle -2.32827e-014 5.55603e-014
rhumerus -22.0549 -6.86594 -58.9188
rradius 64.0799
rwrist 1.10401
rhand -23.1856 -26.6792
rfingers 7.12502
rthumb 3.26383 303.366
lclavicle -2.32827e-014 5.55603e-014
lhumerus -12.2625 -15.2095 95.7756
lradius 64.7437
lwrist 0.489234
lhand -9.7406 27.7465
lfingers 7.12502
lthumb 16.2334 57.0868
rfemur -1.91834 0.986812 27.4311
rtibia 42.8333
rfoot -2.09382 -4.871
rtoes -10.2507
lfemur -26.1302 -0.962742 -10.6224
ltibia 25.8423
lfoot -2.41928 7.2945
ltoes 3.4529
397
root -27.8174 17.7286 3.33923 503.185 -79.6214 -497.89
lowerback -2.49464 -1.65976 5.09125
upperback -3.92261 -2.32468 2.09143
thorax -2.75915 -1.32047 -0.689278
lowerneck -9.63336 -9.37794 -11.7419
upperneck 13.8397 -12.0058 6.13838
head 6.89252 -5.99541 2.69617
rclavicle 2.75379e-014 -5.66536e-015
rhumerus -23.2999 -6.42524 -59.4807
rradius 63.096
rwrist 1.19459
rhand -22.12 -25.8623
rfingers 7.12502
rthumb 4.29288 304.201
lclavicle 2.75379e-014 -5.66536e-015
lhumerus -13.6326 -14.4502 96.1396
lradius 63.3041
lwrist -0.000323754
lhand -10.1187 27.6851
lfingers 7.12502
lthumb 15.8694 57.0549
rfemur -2.99699 0.724081 26.7057
rtibia 45.2638
rfoot 0.929052 -5.09637
rtoes -8.47639
lfemur -25.3539 -1.00143 -11.3329
ltibia 26.033
lfoot -3.01398 7.29201
ltoes 3.10239
398
root -27.9865 17.7286 3.34737 505.421 -79.9158 -500.33
lowerback -2.35074 -1.63349 4.61009
upperback -3.84692 -2.27382 1.91466
thorax -2.74471 -1.27906 -0.601515
lowerneck -9.75454 -9.1242 -11.4875
upperneck 13.7511 -11.6592 6.04944
head 6.83141 -5.81869 2.66759
rclavicle -5.9828e-014 5.26779e-015
rhumerus -24.4828 -6.02077 -60.0872
rradius 61.9836
rwrist 1.28698
rhand -20.8601 -25.1497
rfingers 7.12502
rthumb 5.50938 304.942
lclavicle -5.9828e-014 5.26779e-015
lhumerus -14.9788 -13.625 96.461
lradius 61.7216
lwrist -0.554276
lhand -10.471 27.6675
lfingers 7.12502
lthumb 15.5301 57.0639
rfemur -4.16395 0.458031 25.8797
rtibia 47.6808
rfoot 4.1205 -5.39185
rtoes -6.47634
lfemur -24.5748 -1.0929 -12.1817
ltibia 26.131
lfoot -3.61193 7.34373
ltoes 2.59839
